<svg xmlns="http://www.w3.org/2000/svg" viewBox="0 0 522.95 706.07"><defs><style>.cls-1{fill:#fff;}.cls-2{fill:#f385a3;}.cls-3{fill:#ff9600;}.cls-4{fill:#feee0d;}.cls-5{fill:#0053e1;}.cls-6{fill:#04b0d2;}.cls-7{fill:#d67498;}.cls-8{fill:#02bb2d;}</style></defs><g id="圖層_2" data-name="圖層 2"><g id="耳朵_白"><path class="cls-1" d="M182.37,276.62q-6,2.89-11.89,6.09A246.69,246.69,0,0,0,144,299.43q-9.06,6.54-17.41,13.83c-5.93-10.72-10.91-24.7-18-39a223.71,223.71,0,0,0-29-44,511.48,511.48,0,0,1-38.12-43.87A509.16,509.16,0,0,1,2.55,128.3c-1.4-4.52-5.91-21,2-39a55.5,55.5,0,0,1,19-23,61.16,61.16,0,0,1,36-2,61.65,61.65,0,0,1,34,23q13.49,22.4,27,47,14,25.62,26,50a398.14,398.14,0,0,1,20,43A396.92,396.92,0,0,1,182.37,276.62Z"/><path class="cls-1" d="M400.55,240.3c-1.58,20-3.46,28.73-6.53,33.84q-6.86-3.18-13.74-5.92a267,267,0,0,0-25.61-8.72c-1.24-.35-2.46-.68-3.69-1-1.83-5-3.59-10.46-5.43-16.19-5.17-16.08-3.52-17.34-10-38a271.74,271.74,0,0,0-11-30c-4.91-11.17-9.34-18.93-18-34-7.47-13-13-23.36-18-30-12.95-17.15-31.4-33.79-34-53,.57-38.42,26.52-68.88,63-53,27.4,11.74,42.8,39,53,62,3.77,8.51,8,20.27,16,44,7.13,21.12,10.74,32,13,45,2.4,13.86,2.41,24.66,2.58,46.24C402.15,203.25,402.23,219,400.55,240.3Z"/></g><g id="耳朵_紅"><path class="cls-2" d="M170.48,282.71A246.69,246.69,0,0,0,144,299.43c-11.28-17.83-26.48-48.88-34.42-61.13-15.57-27.34-33.68-42.2-50-63-18.25-21.1-26.21-41-30-54-4.16-14.22-9.15-31.25-1-39,9-8.56,29.47-1.43,41,5,17.11,9.55,24.35,23,42,58,41.63,82.43,49.8,103.21,57,130C169.24,277.85,169.88,280.33,170.48,282.71Z"/><path class="cls-2" d="M381.55,262.3a29.59,29.59,0,0,1-1.27,5.92,267,267,0,0,0-25.61-8.72c1.14-7.54,2.57-20.33,2.88-24.2.42-5.33-.72-11.55-3-24-1.93-10.51-3.11-17.37-6-26-3.54-10.56-8-19.05-17-36-4-7.56-6.81-12.83-11-20-2.76-4.71-4.84-8.05-8-14-1.3-2.45-2-3.78-6-12-8.29-16.85-8.52-17.36-9-19-1.44-5-3.37-12-1-20,1-3.26,2.85-9.66,9-13,6.57-3.56,13.54-1.17,14-1,4.25,1.53,6.65,4.44,17,21,4.52,7.23,6.77,10.84,8,13a243.13,243.13,0,0,1,14,29c6.35,15.73,9.4,28.07,14,47,3,12.33,6.61,28.6,10,48C382.55,208.3,385.62,229,381.55,262.3Z"/></g><g id="頭_白"><path class="cls-1" d="M158.55,501.3c-10.31,1.83-11.94-10.08,0-11,39.87-8.11,24.82-60.77-12-66-21.7-.86-39.53,16.12-38,39,5.49,36.76,67.17,20,49-14-11.11-13.47-32.42-9.79-31,6-.57,6.81,6,12.95,13,9,4.52-2.3,5.22-7,8-9,8.09-2.23,6.09,7.62,2,12-16.29,18.16-39.9-.39-31-22,17.83-29.6,63.63-5.77,50,27-24,41.61-88,18.31-67-32,22-41.6,71.9-28.29,86,2C195,456.62,197.74,491.86,158.55,501.3Z"/><path class="cls-1" d="M247.17,522.6c0,.86-.53,1.16-1.91,3a12.46,12.46,0,0,0-1.91,3,6.73,6.73,0,0,0-.45,3.47c.18,1.18.72,2.22.16,3.46a2,2,0,0,1-.2.38,3.52,3.52,0,0,1-3.37,1.54c-1.21-.27-1.75-1.49-2.38-2.92a9.47,9.47,0,0,1-.77-4.59,12.08,12.08,0,0,1,1.2-4.05,16.27,16.27,0,0,1,2.2-3.84,6.38,6.38,0,0,1,2.73-2.35,3.93,3.93,0,0,1,3.49.59A3.18,3.18,0,0,1,247.17,522.6Z"/><path class="cls-1" d="M247.55,304.3a5.25,5.25,0,0,1-2,4c-2.33,2.13-5.52,2.06-8,2a26.56,26.56,0,0,1-6-1,26.91,26.91,0,0,1-6-2c-2.09-1-3.26-1.61-4-3-.12-.23-1.45-2.8,0-5a5,5,0,0,1,4-2c1,0,1.53.35,3,1a24.68,24.68,0,0,0,6,2,24.35,24.35,0,0,0,6,0c2.41-.17,3-.41,4,0A4.75,4.75,0,0,1,247.55,304.3Z"/><path class="cls-1" d="M400.88,414a51.73,51.73,0,0,1-12.47.17,31.58,31.58,0,0,1,3.1,12.14h4a3,3,0,0,1,0,6h-4.31a33.76,33.76,0,0,1-2.22,8.11l3.54-.48a3.55,3.55,0,0,1,.46,0,3.5,3.5,0,0,1,.47,7l-5.95.8a3.55,3.55,0,0,1-.46,0,3.46,3.46,0,0,1-1.77-.49,41.34,41.34,0,0,1-8.71,9.19l10.77-.59h.16a3,3,0,0,1,.17,6l-23,1.27a49.08,49.08,0,0,1-8.46,2.38c-.64.12-1.28.23-1.92.32-.67.54-1.26,1.05-1.79,1.53-.91.83-2.94,2.89-7,7s-4,4.13-5,5c-3.95,3.48-4.45,2.81-8,6-2.93,2.63-3.52,3.92-6,5a12.47,12.47,0,0,1-5,1,13.81,13.81,0,0,1-7-1c-2.42-1.07-2.93-2.24-7-5a55.77,55.77,0,0,0-5-3,63,63,0,0,0-9-4,52.49,52.49,0,0,1-7.14-3.33,47,47,0,0,1-23.47-2.92,2.87,2.87,0,0,1-.21.8l-4.27,10.4A3.38,3.38,0,0,1,252,482a3.43,3.43,0,0,1,.25-1.28l4.27-10.39a3.14,3.14,0,0,1,.71-1.06c-.33-.19-.66-.39-1-.61a3.49,3.49,0,0,1-1.26.68l-17.73,5.32a3.51,3.51,0,0,1-4.36-2.35,3.46,3.46,0,0,1-.15-1,3.52,3.52,0,0,1,2.5-3.36l14.53-4.35a35.25,35.25,0,0,1-5.1-6.14l-4.92,1.71a3,3,0,0,1-2-5.67l4-1.39a33.26,33.26,0,0,1-1.8-5.26l-6.67,1.09a4,4,0,0,1-4.6-3.3,4.46,4.46,0,0,1-.05-.63,4,4,0,0,1,3.36-4l6.89-1.13a35.25,35.25,0,0,1,1.56-11.09,52,52,0,0,1-9.86,2.29c-20.53,2.74-38.74-6.81-40.67-21.31s13.14-28.49,33.67-31.23,38.74,6.81,40.67,21.31a19.66,19.66,0,0,1,.17,2.41,50.49,50.49,0,0,1,9.25-3.21,48.75,48.75,0,0,1,21-.5c.77-7.42,8.28-13.24,17.43-13.24,9.62,0,17.43,6.43,17.5,14.39a48.55,48.55,0,0,1,13.28-4.54,48,48,0,0,1,17.63-.06,13,13,0,0,1-.25-1.41c-1.94-14.5,13.14-28.48,33.67-31.22s38.74,6.8,40.67,21.31S421.41,411.25,400.88,414Z"/><path class="cls-1" d="M369.14,297.88c0,3.15-2.2,5.46-3.91,7.25A40,40,0,0,1,354.92,312c-2.18.85-3.38,1.32-4.91.93-.26-.06-3.05-.81-3.69-3.37a5,5,0,0,1,1.21-4.3c.69-.74,1.29-.89,2.76-1.54a24.66,24.66,0,0,0,5.52-3.09,23.76,23.76,0,0,0,4.05-4.43c1.49-1.9,1.7-2.48,2.69-3a4.79,4.79,0,0,1,5,.48A5.28,5.28,0,0,1,369.14,297.88Z"/><path class="cls-1" d="M417.87,502.77a25.41,25.41,0,0,1-1.15,6.36c-.55,1.65-1.15,3.45-2.47,4.49a4.84,4.84,0,0,1-4.7.68,4.64,4.64,0,0,1-2.53-2.73c-.34-1.22.18-1.86,1.14-5.05a19.07,19.07,0,0,0,1.15-5,11,11,0,0,0-.92-5.09c-.74-1.57-1.87-2.81-1.7-4.8a4.71,4.71,0,0,1,.1-.62c.4-1.72,2-3.48,3.63-3.62s2.86,1.34,4.28,3.07a14.92,14.92,0,0,1,2.95,6.13A19.22,19.22,0,0,1,417.87,502.77Z"/><path class="cls-1" d="M420.55,585.3c-.92,1.79-3.29,1.3-4,3-.37.89.23,1.13,0,3a5.92,5.92,0,0,1-1,3,5.07,5.07,0,0,1-4,2,5.44,5.44,0,0,1-3-1c-1.95-1.26-1.73-2.58-3-3s-1.95.51-5,2a41.37,41.37,0,0,1-5,2l-.52.15q.23.84.42,1.83v0c1.59,3.81,1.63,7.68,1.37,11.68,0,.34,0,.67,0,1l-.09,0-1,.17-2,.32-2.08.31-.69.09c-13,1.8-27,2.24-44.47,2.52l-7.6.1h0l-11.69.16h0l-6.55.1c-5.23.09-10.74.2-16.58.35l-4.52.12-2,.06-1.51,0c-12.47.33-23,.74-32.1,1.17-10.94.52-19.75,1.07-27.25,1.53h0a9.2,9.2,0,0,1-5.13-1.74c-.42-.32-3.41-2.58-3-5s4-3.66,6-4c.89-.15,1.9-.21,8,1,5,1,5.17,1.21,6,1,2.57-.66,3.43-2.95,7-9,1.36-2.3,3.24-5.2,7-11l.66-1c2.38-3.65,4.53-6.82,5.34-8,3.49-5.11,4.32-6.13,6-9,2.09-3.57,3.16-5.39,4-8,1-3,.78-4.35,1-12,.33-11.15.87-13.66-1-15-.44-.31-1-.59-7,0-7.84.77-10.19,1.58-12,0a7.7,7.7,0,0,1-2-4c-.32-1.33-.68-2.83,0-4,.34-.59,1.24-1.6,7-2s7.66.42,9-1c1.07-1.14.27-2.09,1-5a17.66,17.66,0,0,1,5-8c2.52-2.63,4.32-4.5,7-5,6-1.12,11.81,5.61,13,7,5,5.82,3.62,9.69,8,12,4.59,2.43,10.16.32,11,0,2.82-1.07,4.65-2.85,7-5,3.38-3.08,3.82-5.17,6-7,6.93-5.82,14.73-6.58,19-7a32.17,32.17,0,0,1,16,2c3.69,1.53,8.58,3.56,10,8,1.26,3.93-.89,7.63-4,13a53.83,53.83,0,0,1-13,15,73.59,73.59,0,0,1-15,9c-11.67,5.68-15.73,4.82-19,10a90.65,90.65,0,0,0-4.37,8.58c1-.1,2.66-.14,6.37-.58,1.81-.21,3.54-.48,7-1,9.79-1.48,9.75-1.9,13-2a29,29,0,0,1,10,1l.42.15a23.4,23.4,0,0,1,3.58-4.15c3-3,4.51-4.47,6-5,1.24-.44,1.62-.25,8,0,4.14.16,6.23.24,7,0,3.24-1,4.06-3.19,7-3a7.36,7.36,0,0,0,3,0c1.45-.41,1.7-1.18,3-2,1.92-1.21,3.92-1.13,7-1,2.13.09,3.22.15,4,1a5.27,5.27,0,0,1,1,3,14.81,14.81,0,0,1,0,3c-.17,2.87-.49,3.58,0,4s1.38-.32,3,0a5.15,5.15,0,0,1,3,2,4.28,4.28,0,0,1,1,3,4.7,4.7,0,0,1-2,3,14.55,14.55,0,0,1-4,2c-1.41.57-2,.72-2,1,0,.5,1.92.88,3,1a16.64,16.64,0,0,0,3,0,20.3,20.3,0,0,1,4,0,6,6,0,0,1,4,4A4,4,0,0,1,420.55,585.3Z"/><path class="cls-1" d="M495.55,440.3c1.27-11.31-14.32-39.18-40.33-32.62-15.55,4.06-20.83,19.39-21.66,22-8.45,23.51,20.81,36.25,39,24.63,16.53-9.75,8.18-34.08-12-33-10.64.79-20.46,16.8-7,23,7.59,3.19,15-5.78,13.29-11.33,6-4.25,7.59,3.92,5.88,9.29-5.87,12-18.85,11.54-27.17,4-14.17-15,4.05-36.45,21.06-32.16,13.51,3.54,18.36,9.83,22.94,20.16,2.69,11.13,0,14.59-10,25-8.93,7.82-29.4,14.57-48,0-8.21-6.74-9.31-25.25-8-30,8-44,75-38.7,81,5C505.14,452.7,495.77,467.66,495.55,440.3Z"/><path class="cls-1" d="M520.55,434.3C512.68,356.58,455.13,302.45,394,274.14q-6.86-3.18-13.74-5.92a267,267,0,0,0-25.61-8.72c-1.24-.35-2.46-.68-3.69-1-20.2-5.39-39.6-7.81-56.43-7.19a259.08,259.08,0,0,0-112.18,25.32q-6,2.89-11.89,6.09A246.69,246.69,0,0,0,144,299.43q-9.06,6.54-17.41,13.83c-35.41,30.93-61,71.65-71,118-11,52.94-10,109.16,53,159,17.8,12.7,35,18.37,53.08,22.25,6.5,1.41,13.12,2.57,19.92,3.75,21.42,3.72,32,3.15,55.13,1.74a9.2,9.2,0,0,1-5.13-1.74c-.42-.32-3.41-2.58-3-5s4-3.66,6-4c.89-.15,1.9-.21,8,1,5,1,5.17,1.21,6,1,2.57-.66,3.43-2.95,7-9,1.36-2.3,3.24-5.2,7-11l.66-1c2.38-3.65,4.53-6.82,5.34-8,3.49-5.11,4.32-6.13,6-9,2.09-3.57,3.16-5.39,4-8,1-3,.78-4.35,1-12,.33-11.15.87-13.66-1-15-.44-.31-1-.59-7,0-7.84.77-10.19,1.58-12,0a7.7,7.7,0,0,1-2-4c-.32-1.33-.68-2.83,0-4,.34-.59,1.24-1.6,7-2s7.66.42,9-1c1.07-1.14.27-2.09,1-5a17.66,17.66,0,0,1,5-8c2.52-2.63,4.32-4.5,7-5,6-1.12,11.81,5.61,13,7,5,5.82,3.62,9.69,8,12,4.59,2.43,10.16.32,11,0,2.82-1.07,4.65-2.85,7-5,3.38-3.08,3.82-5.17,6-7,6.93-5.82,14.73-6.58,19-7a32.17,32.17,0,0,1,16,2c3.69,1.53,8.58,3.56,10,8,1.26,3.93-.89,7.63-4,13a53.83,53.83,0,0,1-13,15,73.59,73.59,0,0,1-15,9c-11.67,5.68-15.73,4.82-19,10a90.65,90.65,0,0,0-4.37,8.58c1-.1,2.66-.14,6.37-.58,1.81-.21,3.54-.48,7-1,9.79-1.48,9.75-1.9,13-2a29,29,0,0,1,10,1l.42.15a23.4,23.4,0,0,1,3.58-4.15c3-3,4.51-4.47,6-5,1.24-.44,1.62-.25,8,0,4.14.16,6.23.24,7,0,3.24-1,4.06-3.19,7-3a7.36,7.36,0,0,0,3,0c1.45-.41,1.7-1.18,3-2,1.92-1.21,3.92-1.13,7-1,2.13.09,3.22.15,4,1a5.27,5.27,0,0,1,1,3,14.81,14.81,0,0,1,0,3c-.17,2.87-.49,3.58,0,4s1.38-.32,3,0a5.15,5.15,0,0,1,3,2,4.28,4.28,0,0,1,1,3,4.7,4.7,0,0,1-2,3,14.55,14.55,0,0,1-4,2c-1.41.57-2,.72-2,1,0,.5,1.92.88,3,1a16.64,16.64,0,0,0,3,0,20.3,20.3,0,0,1,4,0,6,6,0,0,1,4,4,4,4,0,0,1,0,3c-.92,1.79-3.29,1.3-4,3-.37.89.23,1.13,0,3a5.92,5.92,0,0,1-1,3,5.07,5.07,0,0,1-4,2,5.44,5.44,0,0,1-3-1c-1.95-1.26-1.73-2.58-3-3s-1.95.51-5,2a41.37,41.37,0,0,1-5,2l-.52.15q.23.84.42,1.83v0c1.59,3.81,1.63,7.68,1.37,11.68,0,.34,0,.67,0,1,20.17-3.52,38.84-10.87,65.7-26.68C527.5,529.83,526.06,485.65,520.55,434.3Zm-173-129.06c.69-.74,1.29-.89,2.76-1.54a24.66,24.66,0,0,0,5.52-3.09,23.76,23.76,0,0,0,4.05-4.43c1.49-1.9,1.7-2.48,2.69-3a4.79,4.79,0,0,1,5,.48,5.28,5.28,0,0,1,1.61,4.18c0,3.15-2.2,5.46-3.91,7.25A40,40,0,0,1,354.92,312c-2.18.85-3.38,1.32-4.91.93-.26-.06-3.05-.81-3.69-3.37A5,5,0,0,1,347.53,305.24Zm-126-5.94a5,5,0,0,1,4-2c1,0,1.53.35,3,1a24.68,24.68,0,0,0,6,2,24.35,24.35,0,0,0,6,0c2.41-.17,3-.41,4,0a4.75,4.75,0,0,1,3,4,5.25,5.25,0,0,1-2,4c-2.33,2.13-5.52,2.06-8,2a26.56,26.56,0,0,1-6-1,26.91,26.91,0,0,1-6-2c-2.09-1-3.26-1.61-4-3C221.43,304.07,220.1,301.5,221.55,299.3Zm-120,141c22-41.6,71.9-28.29,86,2,7.43,14.32,10.19,49.56-29,59-10.31,1.83-11.94-10.08,0-11,39.87-8.11,24.82-60.77-12-66-21.7-.86-39.53,16.12-38,39,5.49,36.76,67.17,20,49-14-11.11-13.47-32.42-9.79-31,6-.57,6.81,6,12.95,13,9,4.52-2.3,5.22-7,8-9,8.09-2.23,6.09,7.62,2,12-16.29,18.16-39.9-.39-31-22,17.83-29.6,63.63-5.77,50,27C144.56,513.91,80.55,490.61,101.55,440.3ZM242.9,532.07c.18,1.18.72,2.22.16,3.46a2,2,0,0,1-.2.38,3.52,3.52,0,0,1-3.37,1.54c-1.21-.27-1.75-1.49-2.38-2.92a9.47,9.47,0,0,1-.77-4.59,12.08,12.08,0,0,1,1.2-4.05,16.27,16.27,0,0,1,2.2-3.84,6.38,6.38,0,0,1,2.73-2.35,3.93,3.93,0,0,1,3.49.59,3.18,3.18,0,0,1,1.21,2.31c0,.86-.53,1.16-1.91,3a12.46,12.46,0,0,0-1.91,3A6.73,6.73,0,0,0,242.9,532.07Zm175-29.3a25.41,25.41,0,0,1-1.15,6.36c-.55,1.65-1.15,3.45-2.47,4.49a4.84,4.84,0,0,1-4.7.68,4.64,4.64,0,0,1-2.53-2.73c-.34-1.22.18-1.86,1.14-5.05a19.07,19.07,0,0,0,1.15-5,11,11,0,0,0-.92-5.09c-.74-1.57-1.87-2.81-1.7-4.8a4.71,4.71,0,0,1,.1-.62c.4-1.72,2-3.48,3.63-3.62s2.86,1.34,4.28,3.07a14.92,14.92,0,0,1,2.95,6.13A19.22,19.22,0,0,1,417.87,502.77Zm-17-88.78a51.73,51.73,0,0,1-12.47.17,31.58,31.58,0,0,1,3.1,12.14h4a3,3,0,0,1,0,6h-4.31a33.76,33.76,0,0,1-2.22,8.11l3.54-.48a3.55,3.55,0,0,1,.46,0,3.5,3.5,0,0,1,.47,7l-5.95.8a3.55,3.55,0,0,1-.46,0,3.46,3.46,0,0,1-1.77-.49,41.34,41.34,0,0,1-8.71,9.19l10.77-.59h.16a3,3,0,0,1,.17,6l-23,1.27a49.08,49.08,0,0,1-8.46,2.38c-.64.12-1.28.23-1.92.32-.67.54-1.26,1.05-1.79,1.53-.91.83-2.94,2.89-7,7s-4,4.13-5,5c-3.95,3.48-4.45,2.81-8,6-2.93,2.63-3.52,3.92-6,5a12.47,12.47,0,0,1-5,1,13.81,13.81,0,0,1-7-1c-2.42-1.07-2.93-2.24-7-5a55.77,55.77,0,0,0-5-3,63,63,0,0,0-9-4,52.49,52.49,0,0,1-7.14-3.33,47,47,0,0,1-23.47-2.92,2.87,2.87,0,0,1-.21.8l-4.27,10.4A3.38,3.38,0,0,1,252,482a3.43,3.43,0,0,1,.25-1.28l4.27-10.39a3.14,3.14,0,0,1,.71-1.06c-.33-.19-.66-.39-1-.61a3.49,3.49,0,0,1-1.26.68l-17.73,5.32a3.51,3.51,0,0,1-4.36-2.35,3.46,3.46,0,0,1-.15-1,3.52,3.52,0,0,1,2.5-3.36l14.53-4.35a35.25,35.25,0,0,1-5.1-6.14l-4.92,1.71a3,3,0,0,1-2-5.67l4-1.39a33.26,33.26,0,0,1-1.8-5.26l-6.67,1.09a4,4,0,0,1-4.6-3.3,4.46,4.46,0,0,1-.05-.63,4,4,0,0,1,3.36-4l6.89-1.13a35.25,35.25,0,0,1,1.56-11.09,52,52,0,0,1-9.86,2.29c-20.53,2.74-38.74-6.81-40.67-21.31s13.14-28.49,33.67-31.23,38.74,6.81,40.67,21.31a19.66,19.66,0,0,1,.17,2.41,50.49,50.49,0,0,1,9.25-3.21,48.75,48.75,0,0,1,21-.5c.77-7.42,8.28-13.24,17.43-13.24,9.62,0,17.43,6.43,17.5,14.39a48.55,48.55,0,0,1,13.28-4.54,48,48,0,0,1,17.63-.06,13,13,0,0,1-.25-1.41c-1.94-14.5,13.14-28.48,33.67-31.22s38.74,6.8,40.67,21.31S421.41,411.25,400.88,414Zm94.67,26.31c1.27-11.31-14.32-39.18-40.33-32.62-15.55,4.06-20.83,19.39-21.66,22-8.45,23.51,20.81,36.25,39,24.63,16.53-9.75,8.18-34.08-12-33-10.64.79-20.46,16.8-7,23,7.59,3.19,15-5.78,13.29-11.33,6-4.25,7.59,3.92,5.88,9.29-5.87,12-18.85,11.54-27.17,4-14.17-15,4.05-36.45,21.06-32.16,13.51,3.54,18.36,9.83,22.94,20.16,2.69,11.13,0,14.59-10,25-8.93,7.82-29.4,14.57-48,0-8.21-6.74-9.31-25.25-8-30,8-44,75-38.7,81,5C505.14,452.7,495.77,467.66,495.55,440.3Z"/><path class="cls-1" d="M396.83,610c0,.34,0,.68-.07,1-.07,1-.16,2.11-.24,3.18h0a52.19,52.19,0,0,0-.15,7.1v0c0,.66.1,1.32.18,2-.2,19.81,1.39,10.06-3,33-2.59,12.07-3.65,14.35-5.79,22.25-.62,2.31-1.34,5.09-2.21,8.75-2.94,12.32-3,14.86-6,17s-6.49,1.86-20,1c-27.37-2-29.3-1.42-69-1-47.16-.18-92.24.65-121,1-11.26.72-17.53,2-21-2-5.27-9.66-.42-28.88,3-40,6.8-15.54,17.62-33.29,11-49a16,16,0,0,0-.92-1.75c6.5,1.41,13.12,2.57,19.92,3.75,21.42,3.72,32,3.15,55.13,1.74a9.2,9.2,0,0,1-5.13-1.74c-.42-.32-3.41-2.58-3-5s4-3.66,6-4c.89-.15,1.9-.21,8,1,5,1,5.17,1.21,6,1,2.57-.66,3.43-2.95,7-9,1.36-2.3,3.24-5.2,7-11l.66-1H382.55a16.24,16.24,0,0,1,8.47,3.53,21.07,21.07,0,0,1,2.07,2.38,17.74,17.74,0,0,1,1.53,2.35,15.93,15.93,0,0,1,.83,1.72v0C397.05,602.11,397.09,606,396.83,610Z"/></g><g id="圖層_7" data-name="圖層 7"><path class="cls-3" d="M394.6,607.54c-.22,1.11-.51,2.41-.86,4-.06.26-.13.53-.19.81-1.28,5.49-2,8.54-2.71,11-.1.33-.19.65-.29,1-2,6.63-3.06,9.94-5,13a32.7,32.7,0,0,1-10,10c-2.67,1.69-6.15,2.82-13,5-4.58,1.46-5.41,1.57-14,4-4.72,1.34-7.78,2.25-9.89,2.85-3.73,1.08-4.48,1.22-6.11,1.15-.41,0-.8,0-1.17-.08-5.05-.49-5.85-2.67-12.83-2.92a50.75,50.75,0,0,0-11,1,58.07,58.07,0,0,0-7.49,1.93,5.6,5.6,0,0,1-3.51.07l-.29-.09c-1.95-.66-4.27-2.46-8.71-5.91a14.22,14.22,0,0,1-1.79-1.65,12.55,12.55,0,0,1-2.21-3.35,5.62,5.62,0,0,1-.62-2.32c-.06-2,1.1-3.41,2.62-5.68,1.08-1.62,1.92-3.39,3-5,2.23-3.33,4.52-7.93,9-17,.69-1.39,1.35-2.75,2-4.06,3.78-7.76,6.68-14,8-16.94,1.54-3.36,3.33-6.62,4.8-10,.43-1,.84-2,1.2-3,2.39-6.67,2.71-10.36,6-12a3.84,3.84,0,0,1,1.63-.42c1-.1,2.66-.14,6.37-.58,1.81-.21,3.54-.48,7-1,9.79-1.48,9.75-1.9,13-2a29,29,0,0,1,10,1l.42.15a58.7,58.7,0,0,1,6.58,3.85c5,3.11,5.63,4,6,5,.91,2.41-.67,3.52,0,6a6.3,6.3,0,0,0,1.92,3,19.55,19.55,0,0,0,5.08,3c6.12,2.8,8.85.84,13,4a16.2,16.2,0,0,1,1.88,1.67c.11.14.24.28.37.42a11.22,11.22,0,0,1,1.75,2.91C395.3,602.17,395.33,603.84,394.6,607.54Z"/><rect class="cls-4" x="302.11" y="640.69" width="34.11" height="7.63" rx="3" transform="translate(582.83 -24.62) rotate(47.85)"/><rect class="cls-4" x="291.91" y="646.41" width="19" height="6.04" rx="2.5" transform="translate(535.94 -27.04) rotate(44.02)"/><path d="M370.09,604.58c-.26-.55-.35-.83-.54-1.28a8.54,8.54,0,0,0-1-2c-.43-.57-.53-.44-1-1-.19-.23-1.5-1.78-1-3,.14-.34.43-.56,1-1a3.35,3.35,0,0,1,2-1,3.29,3.29,0,0,1,2,1,6.62,6.62,0,0,1,1,1,13.22,13.22,0,0,1,2,3,9.1,9.1,0,0,1,1,3,11.12,11.12,0,0,1,0,2c0,3.21,1.7,4.16,1,6-.3.79-1,1.92-2,2-1.26.09-2.51-1.62-3-3-.58-1.64-.41-3.71-1.05-4.92C370.46,605.31,370.29,605,370.09,604.58Z"/><path d="M347.55,582.3c-1.17-1-1-1.19-2-2-1.66-1.35-2.32-1-3-2a3.51,3.51,0,0,1,0-4,2.73,2.73,0,0,1,2-1c.59,0,.83.33,2,1,1,.56,1,.44,2,1a19.08,19.08,0,0,1,3,2,8.37,8.37,0,0,1,2,2c.43.65.32.75,1,2,.76,1.41,1,1.52,1,2a2.51,2.51,0,0,1-2,2c-.79.16-1.52-.22-3-1A15,15,0,0,1,347.55,582.3Z"/><ellipse cx="339.18" cy="586.87" rx="2.5" ry="3.64" transform="translate(-322.37 734.55) rotate(-72.56)"/><ellipse cx="362.95" cy="607.89" rx="3" ry="2.86" transform="translate(-314.17 401.08) rotate(-42.18)"/><circle class="cls-5" cx="333.55" cy="613.3" r="13"/><ellipse class="cls-6" cx="333.17" cy="611.83" rx="7.02" ry="5.02" transform="translate(-45.77 27.25) rotate(-4.38)"/></g><g id="表情"><path d="M362.55,460.3a50.5,50.5,0,0,0-8.21,5.47c-.67.54-1.26,1.05-1.79,1.53-.91.83-2.94,2.89-7,7s-4,4.13-5,5c-3.95,3.48-4.45,2.81-8,6-2.93,2.63-3.52,3.92-6,5a12.47,12.47,0,0,1-5,1,13.81,13.81,0,0,1-7-1c-2.42-1.07-2.93-2.24-7-5a55.77,55.77,0,0,0-5-3,63,63,0,0,0-9-4,52.49,52.49,0,0,1-7.14-3.33,88.28,88.28,0,0,1-8.86-5.67q1.31-.65,2.76-1.32a124.15,124.15,0,0,1,21.55-7.65h0q2.12-.54,4.35-1h0a121.1,121.1,0,0,1,12.09-2l.22,0,1.52-.15a120.43,120.43,0,0,1,12.44-.61c1.24,0,2.45,0,3.64.07a123.52,123.52,0,0,1,19.16,2.09C358,459.21,360.41,459.76,362.55,460.3Z"/><path class="cls-1" d="M347,462.82a38.17,38.17,0,0,0-54.24,5.74A43.14,43.14,0,0,0,303,474.3a39.69,39.69,0,0,1,5.74,2.56,32.74,32.74,0,0,1,3.19,1.91c2.6,1.76,2.93,2.51,4.47,3.19a8.79,8.79,0,0,0,4.47.64A7.9,7.9,0,0,0,324,482c1.58-.69,2-1.51,3.83-3.19,2.26-2,2.58-1.61,5.1-3.83.63-.55.66-.63,3.19-3.19s3.88-3.93,4.47-4.46A31.37,31.37,0,0,1,347,462.82Z"/><path d="M391.24,432.3a33.76,33.76,0,0,1-2.22,8.11,36.9,36.9,0,0,1-3.71,6.8,41.34,41.34,0,0,1-8.71,9.19,46.16,46.16,0,0,1-11.88,6.67,49.08,49.08,0,0,1-8.46,2.38c-.64.12-1.28.23-1.92.32a47.9,47.9,0,0,1-12.23.25,42.32,42.32,0,0,1-22-8.87c-.34-.27-.66-.54-1-.82-.69-.59-1.35-1.2-2-1.85a32.56,32.56,0,0,1-3-3.44,31.68,31.68,0,0,1-6-13.46A32.82,32.82,0,0,1,312,415.27s0,0,0,0c.38-.68.79-1.33,1.22-2a39.14,39.14,0,0,1,3.23-4.32,44,44,0,0,1,13.13-10.26,48.55,48.55,0,0,1,13.28-4.54,48,48,0,0,1,17.63-.06A42,42,0,0,1,366,395.5,40.9,40.9,0,0,1,377.11,401h0a35.44,35.44,0,0,1,6.45,5.81h0a32,32,0,0,1,4.83,7.32,31.58,31.58,0,0,1,3.1,12.14A32.4,32.4,0,0,1,391.24,432.3Z"/><path d="M322.77,450.34a40.61,40.61,0,0,1-2.16,3.79h0c-.47.75-1,1.48-1.51,2.2-.25.34-.5.67-.76,1A46.79,46.79,0,0,1,298.14,472,50.69,50.69,0,0,1,286.41,475a47,47,0,0,1-23.47-2.92,40.48,40.48,0,0,1-5.76-2.83c-.33-.19-.66-.39-1-.61a37.54,37.54,0,0,1-6.47-5.06,35.25,35.25,0,0,1-5.1-6.14,32.5,32.5,0,0,1-2.9-5.35,33.26,33.26,0,0,1-1.8-5.26c0-.13-.08-.27-.11-.41a34.14,34.14,0,0,1-1-7.52,35.25,35.25,0,0,1,1.56-11.09c3.38-11.19,12.06-21,24-26.53a50.49,50.49,0,0,1,9.25-3.21,48.75,48.75,0,0,1,21-.5A42.2,42.2,0,0,1,316.42,409a30.69,30.69,0,0,1,2.74,3.1,25.55,25.55,0,0,1,1.73,2.37,34.42,34.42,0,0,1,4.92,11.18A36,36,0,0,1,322.77,450.34Z"/><path d="M264.39,401.25a20.89,20.89,0,0,1-2.69,10.18h0A32.74,32.74,0,0,1,250.47,423a46.51,46.51,0,0,1-10.06,4.79,52,52,0,0,1-9.86,2.29c-20.53,2.74-38.74-6.81-40.67-21.31s13.14-28.49,33.67-31.23,38.74,6.81,40.67,21.31A19.66,19.66,0,0,1,264.39,401.25Z"/><ellipse class="cls-1" cx="226.14" cy="403.79" rx="31.89" ry="13.15" transform="translate(-66.15 44.97) rotate(-9.92)"/><ellipse cx="226.12" cy="403.86" rx="23.69" ry="22.5" transform="matrix(0.99, -0.13, 0.13, 0.99, -51.41, 33.44)"/><ellipse class="cls-1" cx="229.28" cy="402.87" rx="4.49" ry="4.64" transform="translate(-88.22 65.13) rotate(-13.59)"/><path d="M400.88,414a51.73,51.73,0,0,1-12.47.17,44,44,0,0,1-9.9-2.22h0a30.91,30.91,0,0,1-13.85-9.24,20.14,20.14,0,0,1-4.19-8.61,13,13,0,0,1-.25-1.41c-1.94-14.5,13.14-28.48,33.67-31.22s38.74,6.8,40.67,21.31S421.41,411.25,400.88,414Z"/><ellipse class="cls-1" cx="349.54" cy="429.99" rx="35.25" ry="29.29" transform="translate(-64.61 61.82) rotate(-9.26)"/><ellipse class="cls-1" cx="396.47" cy="387.72" rx="31.89" ry="13.15" transform="translate(-60.84 74.06) rotate(-9.92)"/><ellipse cx="396.45" cy="387.78" rx="23.69" ry="22.5" transform="translate(-47.79 55.82) rotate(-7.6)"/><ellipse class="cls-1" cx="399.6" cy="386.79" rx="4.49" ry="4.64" transform="translate(-79.68 104.7) rotate(-13.59)"/><path d="M247.55,304.3a5.25,5.25,0,0,1-2,4c-2.33,2.13-5.52,2.06-8,2a26.56,26.56,0,0,1-6-1,26.91,26.91,0,0,1-6-2c-2.09-1-3.26-1.61-4-3-.12-.23-1.45-2.8,0-5a5,5,0,0,1,4-2c1,0,1.53.35,3,1a24.68,24.68,0,0,0,6,2,24.35,24.35,0,0,0,6,0c2.41-.17,3-.41,4,0A4.75,4.75,0,0,1,247.55,304.3Z"/><path d="M369.14,297.88c0,3.15-2.2,5.46-3.91,7.25A40,40,0,0,1,354.92,312c-2.18.85-3.38,1.32-4.91.93-.26-.06-3.05-.81-3.69-3.37a5,5,0,0,1,1.21-4.3c.69-.74,1.29-.89,2.76-1.54a24.66,24.66,0,0,0,5.52-3.09,23.76,23.76,0,0,0,4.05-4.43c1.49-1.9,1.7-2.48,2.69-3a4.79,4.79,0,0,1,5,.48A5.28,5.28,0,0,1,369.14,297.88Z"/><path d="M329.55,398.69v.11c0,5.91-4.27,11-10.39,13.25a20.25,20.25,0,0,1-6,1.22q-.57,0-1.14,0a20.36,20.36,0,0,1-2.22-.12A18,18,0,0,1,297,406.13h0a12.54,12.54,0,0,1-2.4-7.32,10.53,10.53,0,0,1,.07-1.26c.77-7.42,8.28-13.24,17.43-13.24C321.67,384.3,329.48,390.73,329.55,398.69Z"/><ellipse class="cls-1" cx="282.81" cy="436.2" rx="36.96" ry="31.52" transform="translate(-84.91 68.74) rotate(-12.06)"/><path d="M253.55,694.3l-39,1a14.08,14.08,0,0,1-9-3c-.78-.64-4.35-3.54-4-6,.94-6.64,30.1-7.74,37-8a230.32,230.32,0,0,1,40,2,213.57,213.57,0,0,0,36,4c25.91.66,48,1.23,61-13,5.33-5.84,7.22-12.56,11-26,6.94-24.67,4.22-40.87,6-41,2.18-.16,9.7,23.72,4,50-2.28,10.52-5.09,23.46-16,32-8.78,6.87-19.19,7.25-40,8-16.94.61-34.58-1.16-43-2-6.59-.66-13.33-1.51-23-1A117.46,117.46,0,0,0,253.55,694.3Z"/><path class="cls-3" d="M188.55,686.3c-4.56-5.52-.81-14.61,1-19,1.39-3.37,4.1-9.95,8-10,2.32,0,4,2.26,6,5,10.73,14.85,16.06,22.33,14,25-.57.74-2.71,1.16-7,2a60.38,60.38,0,0,1-8,1c-3.59.24-5.38.37-7,0A13.42,13.42,0,0,1,188.55,686.3Z"/><path class="cls-7" d="M158.55,501.3c-10.31,1.83-11.94-10.08,0-11,39.87-8.11,24.82-60.77-12-66-21.7-.86-39.53,16.12-38,39,5.49,36.76,67.17,20,49-14-11.11-13.47-32.42-9.79-31,6-.57,6.81,6,12.95,13,9,4.52-2.3,5.22-7,8-9,8.09-2.23,6.09,7.62,2,12-16.29,18.16-39.9-.39-31-22,17.83-29.6,63.63-5.77,50,27-24,41.61-88,18.31-67-32,22-41.6,71.9-28.29,86,2C195,456.62,197.74,491.86,158.55,501.3Z"/><path class="cls-7" d="M495.55,440.3c1.27-11.31-14.32-39.18-40.33-32.62-15.55,4.06-20.83,19.39-21.66,22-8.45,23.51,20.81,36.25,39,24.63,16.53-9.75,8.18-34.08-12-33-10.64.79-20.46,16.8-7,23,7.59,3.19,15-5.78,13.29-11.33,6-4.25,7.59,3.92,5.88,9.29-5.87,12-18.85,11.54-27.17,4-14.17-15,4.05-36.45,21.06-32.16,13.51,3.54,18.36,9.83,22.94,20.16,2.69,11.13,0,14.59-10,25-8.93,7.82-29.4,14.57-48,0-8.21-6.74-9.31-25.25-8-30,8-44,75-38.7,81,5C505.14,452.7,495.77,467.66,495.55,440.3Z"/><path d="M244.5,442.64a4,4,0,0,1-3.36,4l-1.22.2-6.67,1.09a4,4,0,0,1-4.6-3.3,4.46,4.46,0,0,1-.05-.63,4,4,0,0,1,3.36-4l6.89-1.13,1-.16a4,4,0,0,1,4.6,3.3A4.46,4.46,0,0,1,244.5,442.64Z"/><path d="M247.38,454.32a3,3,0,0,1-2,2.83l-.75.26-4.92,1.71a3,3,0,0,1-2-5.67l4-1.39,1.68-.58a3,3,0,0,1,4,2.84Z"/><path d="M257.43,465.93a3.53,3.53,0,0,1-1.24,2.68,3.49,3.49,0,0,1-1.26.68l-17.73,5.32a3.51,3.51,0,0,1-4.36-2.35,3.46,3.46,0,0,1-.15-1,3.52,3.52,0,0,1,2.5-3.36l14.53-4.35,3.2-1a3.51,3.51,0,0,1,4.36,2.34A3.46,3.46,0,0,1,257.43,465.93Z"/><path d="M263,471.57a2.59,2.59,0,0,1,0,.48,2.87,2.87,0,0,1-.21.8l-4.27,10.4A3.38,3.38,0,0,1,252,482a3.43,3.43,0,0,1,.25-1.28l4.27-10.39a3.14,3.14,0,0,1,.71-1.06,3.37,3.37,0,0,1,5.8,2.35Z"/><path d="M398.55,429.3a3,3,0,0,1-3,3h-5a3,3,0,0,1,0-6h5a3,3,0,0,1,3,3Z"/><path d="M393.49,446.87l-5.95.8a3.55,3.55,0,0,1-.46,0,3.53,3.53,0,0,1-3.47-3,3.5,3.5,0,0,1,3-3.93l2.41-.32,3.54-.48a3.55,3.55,0,0,1,.46,0,3.5,3.5,0,0,1,.47,7Z"/><path d="M390.53,458.64a3,3,0,0,1-2.83,3.16l-23,1.27-1,.05-.16-3a3,3,0,0,1,2.83-3.16l10.17-.56,10.77-.59h.16A3,3,0,0,1,390.53,458.64Z"/><path d="M417.87,502.77a25.41,25.41,0,0,1-1.15,6.36c-.55,1.65-1.15,3.45-2.47,4.49a4.84,4.84,0,0,1-4.7.68,4.64,4.64,0,0,1-2.53-2.73c-.34-1.22.18-1.86,1.14-5.05a19.07,19.07,0,0,0,1.15-5,11,11,0,0,0-.92-5.09c-.74-1.57-1.87-2.81-1.7-4.8a4.71,4.71,0,0,1,.1-.62c.4-1.72,2-3.48,3.63-3.62s2.86,1.34,4.28,3.07a14.92,14.92,0,0,1,2.95,6.13A19.22,19.22,0,0,1,417.87,502.77Z"/><path d="M247.17,522.6c0,.86-.53,1.16-1.91,3a12.46,12.46,0,0,0-1.91,3,6.73,6.73,0,0,0-.45,3.47c.18,1.18.72,2.22.16,3.46a2,2,0,0,1-.2.38,3.52,3.52,0,0,1-3.37,1.54c-1.21-.27-1.75-1.49-2.38-2.92a9.47,9.47,0,0,1-.77-4.59,12.08,12.08,0,0,1,1.2-4.05,16.27,16.27,0,0,1,2.2-3.84,6.38,6.38,0,0,1,2.73-2.35,3.93,3.93,0,0,1,3.49.59A3.18,3.18,0,0,1,247.17,522.6Z"/><path class="cls-1" d="M396.85,611c0,1.48,0,2.87-.11,4.23h0c-.06,1-.12,2-.19,3.08s-.13,2.09-.18,3v0c-.63,10.58-.13,8.35-.82,17-1.3,16.31-3,22.62-6.31,28.79-.35.64-.69,1.21-.69,1.21-3.29,5.33-7.51,8.44-11,11a52.06,52.06,0,0,1-16,8c-6.55,1.89-8.71.91-29,0-14.67-.66-15-.21-28-1-7.83-.48-9.23-.73-16-1a187.74,187.74,0,0,0-22,0c-7.23.5-6.19,1-17,2-2.11.2-8.07.46-20,1a68,68,0,0,1-12.32-.72c-.55-.08-1.11-.18-1.68-.28-2.46-.44-4.94-1.06-7-3a13.12,13.12,0,0,1-1.72-2c-.51-.71-.93-1.4-1.28-2-.25-.42-.09-.18-2-4-1-2-1.25-2.49-1-3a1.85,1.85,0,0,1,1.29-.86,5.84,5.84,0,0,1,1.71-.14h22a98.39,98.39,0,0,0,11-1c3.34-.56,15.85-2.68,25-12,5-5.08,5.54-8.8,9-9,4-.23,5.24,4.59,11,8,3.11,1.85,5.17,1.87,12.71,1.91l3.8,0,4.49.07c14.22.27,17.14-.34,21.37-.24,2.16.06,2.47.2,3.63.24a12.76,12.76,0,0,0,1.83-.08,33.52,33.52,0,0,0,7.87-2.08c2.49-.95,4.3-1.84,4.3-1.84,5.26-2.81,10.69-5.28,16-8,11.14-5.71,12.69-6.17,16-9a44.84,44.84,0,0,0,8-9,45.59,45.59,0,0,0,5-10,65.56,65.56,0,0,0,2.42-8.41c.37-1.67.65-3.27.88-4.79h0V607a.34.34,0,0,0,0-.1c.12-.76.22-1.48.3-2.19v0h0c.35-2.92.5-5.41.63-7.33l0-.47a23.39,23.39,0,0,1,.26-2.71c.1-.58.24-.9.46-.91.45,0,1,1.24,1.48,3.15q.23.84.42,1.83v0a68.46,68.46,0,0,1,1.09,7c.17,1.69.26,3.23.28,4.68C396.84,610.32,396.85,610.65,396.85,611Z"/><path d="M372.55,530.3a53.83,53.83,0,0,1-13,15,73.59,73.59,0,0,1-15,9c-11.67,5.68-15.73,4.82-19,10a90.65,90.65,0,0,0-4.37,8.58l-.63,1.42c-1.51,3.42-1.61,4.12-3,7a77.41,77.41,0,0,1-4,7c-.3.55-.64,1.2-1,2a72.46,72.46,0,0,0-4,11c-1,3.35-.94,3.74-2,7-1,3-1.91,5.39-2.49,6.82-.23.54-.4.94-.51,1.18-1.26,2.91-1.49,3-4,8-3.79,7.62-3.36,7.7-5,10a56.42,56.42,0,0,1-6,7c-1.86,1.86-3.87,2.93-4,5a5,5,0,0,0,1,3c.49.78,2,2.86,6,4,3,.86,4.56.05,9.54,0h22.46a66,66,0,0,1,8.4-.12l1.6.12c4.41.42,5.57,1.07,6,2a3.4,3.4,0,0,1-.3,2.84,6.29,6.29,0,0,1-.59,1l-.11.15c-1.4,1.81-3.75,2.62-10,3a105.42,105.42,0,0,1-11,0s-5.94-.18-13,0c-9.22.24-11.47,1-17,0s-7.33-2.4-8-3c-3.3-3-2.88-6.57-5-7-2-.4-3.29,2.48-8,7a56.72,56.72,0,0,1-9,7,43.27,43.27,0,0,1-13,5c-5,1.26-9,1.5-17,2-1.31.08-6.21.1-16,0h-.16a23.45,23.45,0,0,1-7.55-.86,10.41,10.41,0,0,1-2.29-1.14c-.1-.06-1.4-1-4-3l-4-3c-.91-.67-1.6-1.13-2.38-1.65s-1.95-1.25-3.62-2.35c-3.78-2.49-5.68-3.74-6-4-1.92-1.56-5.36-4.35-7-9-.63-1.8-2-5.53,0-8a6,6,0,0,1,4-2,8.32,8.32,0,0,1,6,2c2,1.51,2.53,3,4,5l.28.37a69.76,69.76,0,0,0,8.72,8.63c7,6,5.9,6.11,8,7,1.79.76,3.2.92,10,1,6.34.08,9.5.12,12,0,10.93-.51,16.4-.76,21-3a46.19,46.19,0,0,0,10-7c1.46-1.37,3.8-3.77,5-5,2.95-3,3.44-3.67,5-5,3.16-2.71,4.85-4.15,7-4,2.38.16,2.87,2.12,5,2,1.76-.1,3.12-1.48,5-4a54.45,54.45,0,0,0,6-10c1.78-4.18,3.11-7.3,4.49-11,.79-2.07,1.59-4.32,2.51-7,2.13-6.33,2.15-7.11,4-12,1.45-3.86,2-4.92,3.23-8,.23-.58.49-1.24.77-2,2.05-5.48,3.41-10,4-12,2.07-7.08,2-8.63,4-14,2.5-6.79,4.05-8.26,5-9,2.23-1.73,3.84-1.57,9-3a64.81,64.81,0,0,0,11-4c5.44-2.7,4.6-4,13-10,5.95-4.24,8.46-5.07,9-8a7.05,7.05,0,0,0-3-7c-3.38-2-8.09.74-12,3-4.63,2.68-5.46,4.45-10,8-3.48,2.71-7.94,6.21-14,8-2.07.61-11.55,3.42-20-1-7.87-4.12-9.74-11.83-12-11-2,.73-1.42,7.91,0,13,1.2,4.32,2.25,4.33,3,8,.88,4.28.15,7.64-1,13a63.34,63.34,0,0,1-4,12c-2.33,5.49-3.33,5.78-8,14-.4.71-.77,1.38-1.11,2-3.73,6.91-3.82,9.14-8.89,18-2.46,4.3-4.09,6.7-5,8-.62.89-1.14,1.6-1.61,2.21-2.06,2.69-3,3.35-6.39,7.79-4.47,5.91-5,7.74-8,9-.59.25-4.58,1.87-7,0-1.22-.95-1.51-2.37-2-5-1.08-5.78.41-7.28-1-9a3.84,3.84,0,0,0-2.86-1.26h0a9.2,9.2,0,0,1-5.13-1.74c-.42-.32-3.41-2.58-3-5s4-3.66,6-4c.89-.15,1.9-.21,8,1,5,1,5.17,1.21,6,1,2.57-.66,3.43-2.95,7-9,1.36-2.3,3.24-5.2,7-11l.66-1c2.38-3.65,4.53-6.82,5.34-8,3.49-5.11,4.32-6.13,6-9,2.09-3.57,3.16-5.39,4-8,1-3,.78-4.35,1-12,.33-11.15.87-13.66-1-15-.44-.31-1-.59-7,0-7.84.77-10.19,1.58-12,0a7.7,7.7,0,0,1-2-4c-.32-1.33-.68-2.83,0-4,.34-.59,1.24-1.6,7-2s7.66.42,9-1c1.07-1.14.27-2.09,1-5a17.66,17.66,0,0,1,5-8c2.52-2.63,4.32-4.5,7-5,6-1.12,11.81,5.61,13,7,5,5.82,3.62,9.69,8,12,4.59,2.43,10.16.32,11,0,2.82-1.07,4.65-2.85,7-5,3.38-3.08,3.82-5.17,6-7,6.93-5.82,14.73-6.58,19-7a32.17,32.17,0,0,1,16,2c3.69,1.53,8.58,3.56,10,8C377.81,521.23,375.66,524.93,372.55,530.3Z"/></g><g id="圖層_8" data-name="圖層 8"><path class="cls-8" d="M420.55,585.3c-.92,1.79-3.29,1.3-4,3-.37.89.23,1.13,0,3a5.92,5.92,0,0,1-1,3,5.07,5.07,0,0,1-4,2,5.44,5.44,0,0,1-3-1c-1.95-1.26-1.73-2.58-3-3s-1.95.51-5,2a41.37,41.37,0,0,1-5,2l-.52.15-.41.11a17.73,17.73,0,0,1-1.79.36l-.4.05c-1.14.16-2.33.22-3.88.33-10.05.73-12.5,1.89-15,0a4.5,4.5,0,0,1-2-3c-.08-1.34.93-1.67,1-3s-.82-1.84-1.78-3a8.11,8.11,0,0,1-1.22-2,27,27,0,0,1-1-5c-.46-2.94-.41-3.71-1-4-1.12-.56-2.27,1.71-5,2a5.55,5.55,0,0,1-5-2c-1.5-2.11-.41-4.95,0-6a5.31,5.31,0,0,1,.42-.85,23.4,23.4,0,0,1,3.58-4.15c3-3,4.51-4.47,6-5,1.24-.44,1.62-.25,8,0,4.14.16,6.23.24,7,0,3.24-1,4.06-3.19,7-3a7.36,7.36,0,0,0,3,0c1.45-.41,1.7-1.18,3-2,1.92-1.21,3.92-1.13,7-1,2.13.09,3.22.15,4,1a5.27,5.27,0,0,1,1,3,14.81,14.81,0,0,1,0,3c-.17,2.87-.49,3.58,0,4s1.38-.32,3,0a5.15,5.15,0,0,1,3,2,4.28,4.28,0,0,1,1,3,4.7,4.7,0,0,1-2,3,14.55,14.55,0,0,1-4,2c-1.41.57-2,.72-2,1,0,.5,1.92.88,3,1a16.64,16.64,0,0,0,3,0,20.3,20.3,0,0,1,4,0,6,6,0,0,1,4,4A4,4,0,0,1,420.55,585.3Z"/></g></g></svg>